<svg width="300" height="300" viewBox="-1 -1 27 27" xmlns="http://www.w3.org/2000/svg" shape-rendering="crispEdges"><path fill="#FFF" d="M-1-1h27v27H-1z"/><path fill-rule="evenodd" d="M8 0h4v1h1v1h-2V1H8zm8 0h1v2h-1zm-2 1h1v3h-2v1h-1V3h1V2h1zM8 2h1v3H8zm2 0h1v5h-1zm5 2h1v1h-1zm-2 1h1v1h-1zm3 0h1v3h-1zM8 6h1v1H8zm4 0h1v2h-1zm2 0h1v5h-1zM0 8h4v1h1v1H3V9H2v2H1V9H0zm6 0h1v1H6zm2 0h4v1h1v1h-1v1H9v-1h2V9H9v1H7V9h1zm9 0h1v2h1v1h-2v1h2v1h1v-2h3v1h2v2h-1v-1h-2v-1h-1v4h-2v-1h1v-1h-1v1h-2v-1h-2v1h-1v-1h-1v1h-1v-2h-1v-1h1v-1h2v2h1v-2h1V9h1zm3 0h3v1h-3zm4 0h1v1h-1zm-1 1h1v1h-1zM5 10h2v1H6v1h1v1H5zm3 1h1v1H8zm-6 1h1v2H2zm7 0h1v1H9zm-2 1h2v1H8v1H6v-1h1zm-6 1h1v1H1zm2 0h2v2H4v-1H3zm19 0h2v1h-2zM0 15h1v1H0zm2 0h1v1h1v1H2zm8 0h1v1h-1zm5 0h2v1h-2zm9 0h1v4h-1v1h-1v-1h-1v-2h-1v-1h3zm-1 2h1v1h-1zM5 16h4v2H8v-1H5zm6 0h1v1h1v-1h1v1h1v2h1v1h-1v1h-1v-2h-1v-1h-2v1h-1v-2h1zm-2 3h1v2H9zm12 1h1v1h1v1h1v1h-1v1h2v1h-8v-3h1v-1h1v3h1v-3h1zm0 2h1v2h-1zM8 21h1v2h2v-1h-1v-1h2v3H9v1H8zm7 0h1v3h-1v1h-2v-2h2z"/><path d="M0 0h7v7H0V0zm1 1h5v5H1V1zm1 1h3v3H2V2zm16-2h7v7h-7V0zm1 1h5v5h-5V1zm1 1h3v3h-3V2zM0 18h7v7H0v-7zm1 1h5v5H1v-5zm1 1h3v3H2v-3zm14-4h5v5h-5v-5zm1 1h3v3h-3v-3zm1 1h1v1h-1v-1z" fill-rule="evenodd"/></svg>